HIERARCHY
ROOT joint_Root
{
	OFFSET 0.0 0.0 0.0
	CHANNELS 6 Xposition Yposition Zposition Zrotation Xrotation Yrotation 
	JOINT Hips
	{
		OFFSET 4.5925 91.4895 -427.239
		CHANNELS 6 Xposition Yposition Zposition Zrotation Xrotation Yrotation 
		JOINT Spine
		{
			OFFSET 15.7357 0.0 0.0
			CHANNELS 6 Xposition Yposition Zposition Zrotation Xrotation Yrotation 
			JOINT Chest
			{
				OFFSET 8.98455 -0.406207 0.0
				CHANNELS 6 Xposition Yposition Zposition Zrotation Xrotation Yrotation 
				JOINT Neck
				{
					OFFSET 16.3773 0.0 0.0
					CHANNELS 6 Xposition Yposition Zposition Zrotation Xrotation Yrotation 
					JOINT Head
					{
						OFFSET 6.45672 0.0 0.0
						CHANNELS 6 Xposition Yposition Zposition Zrotation Xrotation Yrotation 
						End Site
						{
							OFFSET 0.0 0.0 0.0
						}
					}
				}
				JOINT Shoulder_L
				{
					OFFSET 12.9942 -0.242716 4.98039
					CHANNELS 6 Xposition Yposition Zposition Zrotation Xrotation Yrotation 
					JOINT UpperArm_L
					{
						OFFSET 5.34809 0.0 0.0
						CHANNELS 6 Xposition Yposition Zposition Zrotation Xrotation Yrotation 
						JOINT LowerArm_L
						{
							OFFSET 24.3286 1.87007e-05 0.0
							CHANNELS 6 Xposition Yposition Zposition Zrotation Xrotation Yrotation 
							JOINT Hand_L
							{
								OFFSET 22.2916 0.0 0.0
								CHANNELS 6 Xposition Yposition Zposition Zrotation Xrotation Yrotation 
								End Site
								{
									OFFSET 0.0 0.0 0.0
								}
							}
						}
					}
				}
				JOINT Shoulder_R
				{
					OFFSET 12.9945 -0.242716 -4.98039
					CHANNELS 6 Xposition Yposition Zposition Zrotation Xrotation Yrotation 
					JOINT UpperArm_R
					{
						OFFSET -5.34813 0.0 0.0
						CHANNELS 6 Xposition Yposition Zposition Zrotation Xrotation Yrotation 
						JOINT LowerArm_R
						{
							OFFSET -24.3289 0.000322201 0.0
							CHANNELS 6 Xposition Yposition Zposition Zrotation Xrotation Yrotation 
							JOINT Hand_R
							{
								OFFSET -22.2915 -0.000108084 0.0
								CHANNELS 6 Xposition Yposition Zposition Zrotation Xrotation Yrotation 
								End Site
								{
									OFFSET 0.0 0.0 0.0
								}
							}
						}
					}
				}
			}
		}
		JOINT UpperLeg_L
		{
			OFFSET -2.19248 -6.46944 0.0
			CHANNELS 6 Xposition Yposition Zposition Zrotation Xrotation Yrotation 
			JOINT LowerLeg_L
			{
				OFFSET 39.0811 0.0 -1.23785e-05
				CHANNELS 6 Xposition Yposition Zposition Zrotation Xrotation Yrotation 
				JOINT Foot_L
				{
					OFFSET 40.9854 0.0 -1.26872e-05
					CHANNELS 6 Xposition Yposition Zposition Zrotation Xrotation Yrotation 
					JOINT Toes_L
					{
						OFFSET 11.7543 0.0 0.0
						CHANNELS 6 Xposition Yposition Zposition Zrotation Xrotation Yrotation 
						End Site
						{
							OFFSET 0.0 0.0 0.0
						}
					}
				}
			}
		}
		JOINT UpperLeg_R
		{
			OFFSET -2.19251 6.46944 0.0
			CHANNELS 6 Xposition Yposition Zposition Zrotation Xrotation Yrotation 
			JOINT LowerLeg_R
			{
				OFFSET -39.0811 -0.00228153 -0.0401928
				CHANNELS 6 Xposition Yposition Zposition Zrotation Xrotation Yrotation 
				JOINT Foot_R
				{
					OFFSET -40.9854 0.0 0.0
					CHANNELS 6 Xposition Yposition Zposition Zrotation Xrotation Yrotation 
					JOINT Toes_R
					{
						OFFSET -11.7543 0.0 0.0
						CHANNELS 6 Xposition Yposition Zposition Zrotation Xrotation Yrotation 
						End Site
						{
							OFFSET 0.0 0.0 0.0
						}
					}
				}
			}
		}
	}
}
MOTION
Frames:	7
Frame Time:	0.0333333
0.000000 0.000000 0.000000 0.000000 0.000000 -0.000000 -3.040020 90.080400 2.436190 90.989800 -2.047330 14.526900 15.735700 0.000005 -0.000001 75.859400 82.602000 -74.460500 8.984550 -0.406207 -0.000000 6.637540 -3.617160 3.005330 16.377300 -0.000001 -0.000001 32.063600 -8.752150 -1.726520 6.456720 -0.000001 -0.000000 19.625400 -8.612200 1.713310 12.994200 -0.242716 4.980390 -88.063900 -4.837420 -68.155700 5.348090 -0.000007 -0.000001 -45.962900 -41.245500 -87.855700 24.328600 0.000019 0.000005 15.151800 18.927800 -39.855200 22.291600 -0.000001 0.000005 14.056500 5.372490 -2.063890 12.994500 -0.242716 -4.980390 88.359700 8.821800 -79.423400 -5.348130 -0.000001 -0.000004 -63.409300 32.935600 -6.384120 -24.328900 0.000322 -0.000009 1.290990 4.133980 -17.373200 -22.291500 -0.000108 -0.000004 12.066700 5.409780 -3.257990 -2.192480 -6.469440 -0.000000 -172.342000 -13.407100 6.200500 39.081100 -0.000007 -0.000012 -0.261466 0.425866 31.548800 40.985400 -0.000006 -0.000013 -1.196700 7.267640 -72.262600 11.754300 -0.000000 0.000003 -0.000097 -0.000998 -16.615900 -2.192510 6.469440 -0.000001 170.748000 22.542700 -171.786000 -39.081100 -0.002282 -0.040193 -0.265305 0.426980 32.173400 -40.985400 0.000008 0.000006 4.620860 12.165700 -75.058500 -11.754300 -0.000006 -0.000006 -0.000917 -0.014227 -17.151800
0.000000 0.000000 0.000000 0.000000 0.000000 -0.000000 -3.125660 90.075900 2.441430 91.005000 -2.192460 14.504800 15.735700 0.000005 -0.000001 76.046300 82.526600 -74.627900 8.984550 -0.406207 -0.000000 6.796290 -3.604530 3.048590 16.377300 -0.000001 -0.000001 32.525600 -8.794190 -1.664700 6.456720 -0.000001 -0.000000 20.121000 -8.675890 1.793400 12.994200 -0.242716 4.980390 -88.048200 -4.884240 -68.185900 5.348090 -0.000007 -0.000001 -46.090100 -41.290300 -87.724500 24.328600 0.000019 0.000005 15.137500 19.000300 -39.723600 22.291600 -0.000001 0.000005 14.118100 5.369690 -1.976910 12.994500 -0.242716 -4.980390 88.360900 8.857740 -79.472300 -5.348130 -0.000001 -0.000004 -63.389600 32.950000 -6.333530 -24.328900 0.000322 -0.000009 1.299470 4.182500 -17.289900 -22.291500 -0.000108 -0.000004 12.070900 5.409810 -3.259040 -2.192480 -6.469440 -0.000000 -172.258000 -13.513900 6.231680 39.081100 -0.000007 -0.000012 -0.266626 0.434788 31.518400 40.985400 -0.000006 -0.000013 -1.275220 7.252800 -72.251600 11.754300 -0.000000 0.000003 -0.000086 -0.000904 -16.612400 -2.192510 6.469440 -0.000001 170.823000 22.490500 -171.845000 -39.081100 -0.002282 -0.040193 -0.265248 0.426404 32.202700 -40.985400 0.000008 0.000006 4.706190 12.202200 -75.094600 -11.754300 -0.000006 -0.000006 -0.001035 -0.015899 -17.219700
0.000000 0.000000 0.000000 0.000000 0.000000 -0.000000 -3.210340 90.075900 2.437590 91.001400 -2.299050 14.465100 15.735700 0.000005 -0.000001 76.133300 82.462700 -74.687800 8.984550 -0.406207 -0.000000 6.926990 -3.611320 3.107220 16.377300 -0.000001 -0.000001 32.928600 -8.849870 -1.582630 6.456720 -0.000001 -0.000000 20.639800 -8.722860 1.850900 12.994200 -0.242716 4.980390 -88.043100 -4.908140 -68.230600 5.348090 -0.000007 -0.000001 -46.388600 -41.293600 -87.760600 24.328600 0.000019 0.000005 15.091500 19.066200 -39.539900 22.291600 -0.000001 0.000005 14.194200 5.370350 -1.997430 12.994500 -0.242716 -4.980390 88.356900 8.902040 -79.498500 -5.348130 -0.000001 -0.000004 -63.372500 32.966500 -6.243530 -24.328900 0.000322 -0.000009 1.306190 4.204880 -17.287200 -22.291500 -0.000108 -0.000004 12.042900 5.409420 -3.246040 -2.192480 -6.469440 -0.000000 -172.206000 -13.527600 6.217290 39.081100 -0.000007 -0.000012 -0.265527 0.433445 31.492000 40.985400 -0.000006 -0.000013 -1.353930 7.203230 -72.232700 11.754300 -0.000000 0.000003 -0.000085 -0.000894 -16.612000 -2.192510 6.469440 -0.000001 170.922000 22.444700 -171.902000 -39.081100 -0.002282 -0.040193 -0.264300 0.424981 32.197800 -40.985400 0.000008 0.000006 4.777170 12.219700 -75.111500 -11.754300 -0.000006 -0.000006 -0.000860 -0.013398 -17.118100
0.000000 0.000000 0.000000 0.000000 0.000000 -0.000000 -3.278220 90.073300 2.428660 91.007500 -2.408430 14.392200 15.735700 0.000005 -0.000001 76.134600 82.405200 -74.664700 8.984550 -0.406207 -0.000000 7.040230 -3.636850 3.161330 16.377300 -0.000001 -0.000001 33.249500 -8.861890 -1.526590 6.456720 -0.000001 -0.000000 21.100900 -8.707210 1.956630 12.994200 -0.242716 4.980390 -88.027200 -4.955930 -68.261600 5.348090 -0.000007 -0.000001 -46.660000 -41.302500 -87.783300 24.328600 0.000019 0.000005 15.012200 19.091400 -39.349000 22.291600 -0.000001 0.000005 14.173400 5.367200 -1.900150 12.994500 -0.242716 -4.980390 88.363300 8.916380 -79.554800 -5.348130 -0.000001 -0.000004 -63.373800 32.925700 -6.192410 -24.328900 0.000322 -0.000009 1.322650 4.263720 -17.265100 -22.291500 -0.000108 -0.000004 12.008200 5.409800 -3.258730 -2.192480 -6.469440 -0.000000 -172.154000 -13.596600 6.147710 39.081100 -0.000007 -0.000012 -0.269170 0.439468 31.487600 40.985400 -0.000006 -0.000013 -1.410570 7.208950 -72.210100 11.754300 -0.000000 0.000003 -0.000085 -0.000898 -16.612100 -2.192510 6.469440 -0.000001 171.028000 22.385100 -172.027000 -39.081100 -0.002282 -0.040193 -0.265042 0.425695 32.225900 -40.985400 0.000008 0.000006 4.840750 12.222400 -75.129800 -11.754300 -0.000006 -0.000006 -0.000890 -0.013829 -17.135600
0.000000 0.000000 0.000000 0.000000 0.000000 -0.000000 -3.337320 90.073400 2.431620 91.038200 -2.478320 14.313300 15.735700 0.000005 -0.000001 76.044000 82.352500 -74.562900 8.984550 -0.406207 -0.000000 7.138190 -3.683940 3.189840 16.377300 -0.000001 -0.000001 33.430700 -8.878690 -1.481810 6.456720 -0.000001 -0.000000 21.494500 -8.657340 2.093000 12.994200 -0.242716 4.980390 -88.007000 -5.016820 -68.300300 5.348090 -0.000007 -0.000001 -46.828600 -41.333700 -87.757900 24.328600 0.000019 0.000005 14.998100 19.170500 -39.209700 22.291600 -0.000001 0.000005 14.157500 5.368130 -1.929020 12.994500 -0.242716 -4.980390 88.362000 8.934800 -79.567200 -5.348130 -0.000001 -0.000004 -63.399200 32.866200 -6.138170 -24.328900 0.000322 -0.000009 1.324550 4.266460 -17.278100 -22.291500 -0.000108 -0.000004 12.058000 5.410750 -3.289980 -2.192480 -6.469440 -0.000000 -172.116000 -13.752900 6.122880 39.081100 -0.000007 -0.000012 -0.268394 0.438936 31.444800 40.985400 -0.000006 -0.000013 -1.432450 7.277850 -72.193400 11.754300 -0.000000 0.000003 -0.000088 -0.000923 -16.613100 -2.192510 6.469440 -0.000001 171.092000 22.325500 -172.135000 -39.081100 -0.002282 -0.040193 -0.263898 0.423622 32.241600 -40.985400 0.000008 0.000006 4.885060 12.224700 -75.151100 -11.754300 -0.000006 -0.000006 -0.000899 -0.013964 -17.141100
0.000000 0.000000 0.000000 0.000000 0.000000 -0.000000 -3.390340 90.078800 2.437650 91.044400 -2.538950 14.184400 15.735700 0.000005 -0.000001 75.893600 82.324600 -74.387900 8.984550 -0.406207 -0.000000 7.184420 -3.735670 3.243640 16.377300 -0.000001 -0.000001 33.542700 -8.905480 -1.392050 6.456720 -0.000001 -0.000000 21.712500 -8.695840 2.167150 12.994200 -0.242716 4.980390 -88.007400 -5.021220 -68.322200 5.348090 -0.000007 -0.000001 -46.822000 -41.352900 -87.692500 24.328600 0.000019 0.000005 15.019000 19.282500 -39.093400 22.291600 -0.000001 0.000005 14.250800 5.366890 -1.890620 12.994500 -0.242716 -4.980390 88.357900 8.929930 -79.536200 -5.348130 -0.000001 -0.000004 -63.418200 32.796900 -6.131170 -24.328900 0.000322 -0.000009 1.350980 4.356590 -17.259900 -22.291500 -0.000108 -0.000004 12.029300 5.408820 -3.226390 -2.192480 -6.469440 -0.000000 -172.074000 -13.863800 6.025740 39.081100 -0.000007 -0.000012 -0.270074 0.442456 31.400300 40.985400 -0.000006 -0.000013 -1.460690 7.345560 -72.159400 11.754300 -0.000000 0.000003 -0.000097 -0.001000 -16.615900 -2.192510 6.469440 -0.000001 171.188000 22.330300 -172.273000 -39.081100 -0.002282 -0.040193 -0.260797 0.419045 32.220600 -40.985400 0.000008 0.000006 4.928850 12.229700 -75.152100 -11.754300 -0.000006 -0.000006 -0.000845 -0.013181 -17.109300
0.000000 0.000000 0.000000 0.000000 0.000000 -0.000000 -3.425740 90.082800 2.472130 91.082600 -2.573120 14.089000 15.735700 0.000005 -0.000001 75.641500 82.310800 -74.116700 8.984550 -0.406207 -0.000000 7.196770 -3.807660 3.286830 16.377300 -0.000001 -0.000001 33.597800 -9.017300 -1.325350 6.456720 -0.000001 -0.000000 21.826700 -8.810400 2.228890 12.994200 -0.242716 4.980390 -87.996700 -5.051660 -68.335300 5.348090 -0.000007 -0.000001 -46.845100 -41.299200 -87.589400 24.328600 0.000019 0.000005 15.007100 19.292100 -39.056600 22.291600 -0.000001 0.000005 14.191100 5.366430 -1.876460 12.994500 -0.242716 -4.980390 88.353000 8.932020 -79.508200 -5.348130 -0.000001 -0.000004 -63.397500 32.787600 -6.094570 -24.328900 0.000322 -0.000009 1.344260 4.342970 -17.229700 -22.291500 -0.000108 -0.000004 12.002000 5.408990 -3.231890 -2.192480 -6.469440 -0.000000 -172.091000 -13.935800 6.006450 39.081100 -0.000007 -0.000012 -0.268383 0.441005 31.324000 40.985400 -0.000006 -0.000013 -1.487460 7.360180 -72.146200 11.754300 -0.000000 0.000003 -0.000088 -0.000922 -16.613000 -2.192510 6.469440 -0.000001 171.213000 22.310800 -172.343000 -39.081100 -0.002282 -0.040193 -0.261813 0.421055 32.196300 -40.985400 0.000008 0.000006 4.950040 12.232500 -75.173900 -11.754300 -0.000006 -0.000006 -0.000805 -0.012592 -17.085300
